<svg width="1291" height="295" viewBox="0 0 1291 295" fill="none" xmlns="http://www.w3.org/2000/svg">
<path d="M179.517 134.84H98.0806C111.437 116.082 130.823 102.558 152.637 96.4035C154.605 95.8591 156.572 95.3567 158.54 94.938C165.114 93.5144 171.813 92.7607 178.638 92.677H179.475C186.677 92.677 193.753 93.4726 200.535 94.938C202.587 95.3986 204.639 95.901 206.648 96.4871C247.932 108.378 278.79 146.521 279.585 191.573C280.046 218.83 269.871 244.58 250.905 264.007C231.938 283.435 206.565 294.153 179.517 294.153C178.763 294.153 178.051 294.153 177.298 294.153C150.711 293.567 125.84 282.472 107.292 262.961C92.2189 247.092 82.882 227.329 80.2024 206.144C79.9512 204.05 79.7418 201.957 79.6162 199.821C86.3991 201.328 93.475 202.082 100.677 202.082C100.97 202.082 101.263 202.082 101.514 202.082C108.339 202.04 115.08 201.245 121.611 199.821C121.821 201.873 122.156 203.883 122.574 205.85C128.269 232.228 151.59 252.033 179.475 252.033C180.187 252.033 180.941 252.033 181.694 251.991C211.924 250.86 236.501 226.157 237.674 195.718C238.302 179.598 232.524 164.358 221.47 152.76C213.85 144.805 204.471 139.32 194.129 136.64C189.44 135.426 184.499 134.798 179.517 134.798V134.84Z" fill="#695CFF"/>
<path d="M0.566517 103.186C0.0640826 75.9293 10.2803 50.1796 29.2472 30.7521C48.2141 11.3246 73.587 0.605957 100.635 0.605957C101.388 0.605957 102.1 0.605957 102.854 0.605957C129.441 1.19213 154.311 12.2457 172.86 31.7988C187.933 47.6674 197.27 67.4298 199.949 88.6576C200.201 90.7511 200.41 92.8446 200.536 94.98C193.753 93.4727 186.677 92.719 179.475 92.719H178.638C171.813 92.7608 165.072 93.5564 158.54 94.98C158.331 92.9284 157.996 90.9186 157.577 88.9507C151.883 62.5729 128.52 42.7686 100.677 42.7686C99.923 42.7686 99.2112 42.7686 98.4575 42.7686C68.2277 43.8991 43.6503 68.6021 42.4779 99.0413C41.8499 115.161 47.6279 130.402 58.6815 141.999C66.3017 149.955 75.6805 155.481 85.9804 158.119C87.0271 158.37 88.0739 158.622 89.1206 158.831C89.4974 158.915 89.9161 158.957 90.3348 159.04C90.7954 159.124 91.2978 159.208 91.8002 159.292C92.7632 159.417 93.7263 159.543 94.7312 159.668C94.9824 159.668 95.2336 159.71 95.4848 159.752C95.9453 159.794 96.4059 159.836 96.8665 159.878H96.9921C97.3689 159.878 97.7457 159.92 98.1644 159.92C98.4994 159.92 98.8344 159.92 99.1693 159.92C99.6718 159.92 100.174 159.92 100.677 159.92H182.113C168.756 178.677 149.371 192.201 127.557 198.356C125.589 198.9 123.621 199.403 121.653 199.821C115.122 201.245 108.381 201.998 101.556 202.082C101.263 202.082 100.97 202.082 100.718 202.082C93.5169 202.082 86.441 201.287 79.6581 199.821C79.1138 199.696 78.6532 199.57 78.1089 199.486C77.439 199.319 76.7691 199.151 76.0992 198.984C75.2618 198.775 74.3825 198.523 73.5451 198.272C57.216 193.583 42.5198 184.79 30.6707 173.067C12.5412 155.146 1.06893 130.402 0.608364 103.144L0.566517 103.186Z" fill="#FF3465"/>
<path d="M834.315 178.216C835.152 226.241 796.214 265.305 748.482 264.258C702.342 263.253 665.329 224.273 666.376 177.798C666.46 173.988 666.795 170.261 667.381 166.577C667.381 166.577 667.381 166.535 667.381 166.493C667.465 166.074 667.507 165.614 667.59 165.195C667.59 165.153 667.59 165.069 667.59 165.027C669.265 155.397 677.681 148.405 687.437 148.405H723.109C714.442 156.026 708.999 167.205 708.999 179.724C708.999 203.213 728.343 222.179 751.916 221.3C773.353 220.505 790.812 202.919 791.608 181.398C792.529 157.658 773.688 138.147 750.325 138.147H677.179C691.498 112.691 718.546 95.4403 749.613 95.1891C795.418 94.8123 833.478 132.076 834.315 178.216Z" fill="#292929"/>
<path d="M1025.16 178.216C1025.99 226.241 987.055 265.305 939.324 264.258C893.183 263.253 856.171 224.273 857.217 177.798C857.301 173.988 857.636 170.261 858.222 166.577C858.222 166.577 858.222 166.535 858.222 166.493C858.306 166.074 858.348 165.614 858.432 165.195C858.432 165.153 858.432 165.069 858.432 165.027C860.107 155.397 868.522 148.405 878.278 148.405H913.951C905.284 156.026 899.841 167.205 899.841 179.724C899.841 203.213 919.184 222.179 942.757 221.3C964.194 220.505 981.654 202.919 982.449 181.398C983.37 157.658 964.529 138.147 941.166 138.147H868.02C882.339 112.691 909.387 95.4403 940.454 95.1891C986.301 94.8123 1024.32 132.076 1025.16 178.216Z" fill="#292929"/>
<path d="M1290.11 178.216C1290.94 226.241 1252.01 265.305 1204.27 264.258C1158.13 263.253 1121.12 224.273 1122.17 177.798C1122.25 173.988 1122.59 170.261 1123.17 166.577C1123.17 166.577 1123.17 166.535 1123.17 166.493C1123.26 166.074 1123.3 165.614 1123.38 165.195C1123.38 165.153 1123.38 165.069 1123.38 165.027C1125.06 155.397 1133.47 148.405 1143.23 148.405H1178.9C1170.23 156.026 1164.79 167.205 1164.79 179.724C1164.79 203.213 1184.14 222.179 1207.71 221.3C1229.14 220.505 1246.6 202.919 1247.4 181.398C1248.32 157.658 1229.48 138.147 1206.12 138.147H1132.97C1147.29 112.691 1174.34 95.4403 1205.4 95.1891C1251.21 94.8123 1289.27 132.076 1290.11 178.216Z" fill="#292929"/>
<path d="M1099.31 31.7981V243.951C1099.31 255.172 1090.26 264.258 1079.13 264.258H1048.06V52.1047C1048.06 40.8837 1057.1 31.7981 1068.24 31.7981H1099.31Z" fill="#292929"/>
<path d="M381.705 146.186L330.457 195.717V30.5837H357.965C371.07 30.5837 381.705 41.2604 381.705 54.4493V146.186Z" fill="#292929"/>
<path d="M643.473 95.1892V120.52C643.473 120.52 639.914 130.862 624.967 140.66C624.967 140.66 598.087 143.297 590.592 167.205V243.994C590.592 255.215 581.548 264.3 570.411 264.3H539.344V115.538C539.344 104.317 548.388 95.2311 559.525 95.2311H590.592V111.1C596.035 105.657 608.094 95.2311 620.654 95.2311H643.432L643.473 95.1892Z" fill="#292929"/>
<path d="M516.567 264.257H472.855C465.444 264.257 458.41 260.824 453.804 254.962L408.167 196.68L381.747 221.969V240.35C381.747 253.539 371.112 264.215 358.007 264.215H330.499V211.041L381.077 162.054L381.747 161.426L412.772 131.74L444.007 101.845C448.529 97.5328 454.474 95.1462 460.713 95.1462H514.222L439.862 166.324L516.525 264.215L516.567 264.257Z" fill="#292929"/>
</svg>
