<svg width="28" height="28" viewBox="0 0 28 28" fill="none" xmlns="http://www.w3.org/2000/svg">
<rect width="28" height="28" rx="14" fill="url(#paint0_linear_571_2135)"/>
<path d="M15.865 12.2487L16.5589 14.014C16.816 14.6674 17.3326 15.185 17.986 15.4411L19.7513 16.135C20.0829 16.2652 20.0829 16.7348 19.7513 16.865L17.986 17.5589C17.3326 17.816 16.816 18.3326 16.5589 18.986L15.865 20.7513C15.7348 21.0829 15.2652 21.0829 15.135 20.7513L14.4411 18.986C14.184 18.3326 13.6674 17.815 13.014 17.5589L11.2487 16.865C10.9171 16.7348 10.9171 16.2652 11.2487 16.135L13.014 15.4411C13.6674 15.184 14.185 14.6674 14.4411 14.014L15.135 12.2487C15.2652 11.9171 15.7337 11.9171 15.865 12.2487Z" fill="white"/>
<path d="M10.2433 8.16581L10.7059 9.34268C10.8774 9.77826 11.2217 10.1234 11.6573 10.2941L12.8342 10.7567C13.0553 10.8435 13.0553 11.1565 12.8342 11.2433L11.6573 11.7059C11.2217 11.8774 10.8774 12.2217 10.7059 12.6573L10.2433 13.8342C10.1565 14.0553 9.8435 14.0553 9.75667 13.8342L9.2941 12.6573C9.12264 12.2217 8.77826 11.8766 8.34268 11.7059L7.16581 11.2433C6.94473 11.1565 6.94473 10.8435 7.16581 10.7567L8.34268 10.2941C8.77826 10.1226 9.12336 9.77826 9.2941 9.34268L9.75667 8.16581C9.8435 7.94473 10.1558 7.94473 10.2433 8.16581Z" fill="white"/>
<path d="M19.6217 10.0829L19.853 10.6713C19.9387 10.8891 20.1109 11.0617 20.3287 11.147L20.9171 11.3783C21.0276 11.4217 21.0276 11.5783 20.9171 11.6217L20.3287 11.853C20.1109 11.9387 19.9387 12.1109 19.853 12.3287L19.6217 12.9171C19.5783 13.0276 19.4217 13.0276 19.3783 12.9171L19.147 12.3287C19.0613 12.1109 18.8891 11.9383 18.6713 11.853L18.0829 11.6217C17.9724 11.5783 17.9724 11.4217 18.0829 11.3783L18.6713 11.147C18.8891 11.0613 19.0617 10.8891 19.147 10.6713L19.3783 10.0829C19.4217 9.97237 19.5779 9.97237 19.6217 10.0829Z" fill="white"/>
<defs>
<linearGradient id="paint0_linear_571_2135" x1="0" y1="14" x2="28" y2="14" gradientUnits="userSpaceOnUse">
<stop stop-color="#6E72FF"/>
<stop offset="1" stop-color="#FF2CB9"/>
</linearGradient>
</defs>
</svg>
