<svg width="44" height="44" viewBox="0 0 44 44" fill="none" xmlns="http://www.w3.org/2000/svg">
<rect width="44" height="44" rx="22" fill="#F9F9F9"/>
<path fill-rule="evenodd" clip-rule="evenodd" d="M12.6667 15.3333C12.6667 11.6514 15.6514 8.66663 19.3333 8.66663C23.0152 8.66663 26 11.6514 26 15.3333C26 19.0152 23.0152 22 19.3333 22C15.6514 22 12.6667 19.0152 12.6667 15.3333ZM19.3333 11.3333C17.1242 11.3333 15.3333 13.1242 15.3333 15.3333C15.3333 17.5424 17.1242 19.3333 19.3333 19.3333C21.5425 19.3333 23.3333 17.5424 23.3333 15.3333C23.3333 13.1242 21.5425 11.3333 19.3333 11.3333Z" fill="#152C70"/>
<path d="M11.3366 32.6666C11.437 29.7041 13.8702 27.3333 16.8572 27.3333H18C18.7364 27.3333 19.3333 26.7364 19.3333 26C19.3333 25.2636 18.7364 24.6666 18 24.6666H16.8572C12.3337 24.6666 8.66667 28.3337 8.66667 32.8572C8.66667 34.2246 9.7753 35.3333 11.1429 35.3333H19.3333C20.0697 35.3333 20.6667 34.7364 20.6667 34C20.6667 33.2636 20.0697 32.6666 19.3333 32.6666H11.3366Z" fill="#152C70"/>
<path fill-rule="evenodd" clip-rule="evenodd" d="M28.6667 35.3333C32.3485 35.3333 35.3333 32.3485 35.3333 28.6667C35.3333 24.9848 32.3485 22 28.6667 22C24.9848 22 22 24.9848 22 28.6667C22 32.3485 24.9848 35.3333 28.6667 35.3333ZM28.7071 31.3737L32.0404 28.0404C32.4309 27.6499 32.4309 27.0168 32.0404 26.6263C31.6499 26.2357 31.0168 26.2357 30.6263 26.6263L28 29.2524L27.3737 28.6263C26.9832 28.2357 26.3501 28.2357 25.9596 28.6263C25.5691 29.0168 25.5691 29.6499 25.9596 30.0404L27.2923 31.3731C27.6828 31.7636 28.3165 31.7643 28.7071 31.3737Z" fill="#4296FF"/>
</svg>
