<svg width="21" height="21" viewBox="0 0 21 21" fill="none" xmlns="http://www.w3.org/2000/svg">
<g clip-path="url(#clip0_894_358)">
<path d="M19.95 9.65895H18.921C18.3403 9.65895 17.871 10.0359 17.871 10.5C17.871 10.963 18.3403 11.3389 18.921 11.3389H19.95C20.5296 11.3389 21 10.9641 21 10.5C21 10.0369 20.5285 9.65895 19.95 9.65895ZM10.5 4.725C7.29645 4.725 4.725 7.29645 4.725 10.5C4.725 13.7035 7.29645 16.275 10.5 16.275C13.7025 16.275 16.275 13.7035 16.275 10.5C16.275 7.29645 13.7014 4.725 10.5 4.725ZM10.5 14.7C8.17845 14.7 6.3 12.8194 6.3 10.5C6.3 8.17845 8.17845 6.3 10.5 6.3C11.6139 6.3 12.6822 6.7425 13.4698 7.53015C14.2575 8.3178 14.7 9.38609 14.7 10.5C14.7 11.6139 14.2575 12.6822 13.4698 13.4698C12.6822 14.2575 11.6139 14.7 10.5 14.7ZM3.15 10.5C3.15 10.0369 2.67855 9.65895 2.1 9.65895H1.05C0.46935 9.65895 0 10.0359 0 10.5C0 10.963 0.46935 11.3389 1.05 11.3389H2.1C2.67855 11.3389 3.15 10.963 3.15 10.5ZM10.5 3.15C10.963 3.15 11.3389 2.68065 11.3389 2.1V1.05C11.3389 0.46935 10.963 0 10.5 0C10.0359 0 9.65895 0.46935 9.65895 1.05V2.1C9.65895 2.68065 10.0359 3.15 10.5 3.15ZM10.5 17.85C10.0359 17.85 9.65895 18.3193 9.65895 18.9V19.95C9.65895 20.5306 10.0359 21 10.5 21C10.963 21 11.3389 20.5306 11.3389 19.95V18.9C11.3389 18.3193 10.963 17.85 10.5 17.85ZM18.2332 3.9543C18.6438 3.54375 18.7099 2.94525 18.3823 2.61765C18.0547 2.29005 17.4552 2.35725 17.0467 2.7678L16.3117 3.50175C15.9012 3.9123 15.835 4.5108 16.1626 4.8384C16.4902 5.166 17.0898 5.0988 17.4993 4.68825L18.2332 3.9543ZM3.5007 16.3096L2.7657 17.0457C2.35515 17.4562 2.289 18.0526 2.6166 18.3802C2.9442 18.7078 3.54375 18.6427 3.9522 18.2322L4.6872 17.4983C5.09775 17.0877 5.1639 16.4892 4.8363 16.1605C4.5087 15.8319 3.90915 15.9012 3.5007 16.3096ZM3.95325 2.76675C3.54375 2.3562 2.9442 2.289 2.6166 2.6166C2.289 2.9442 2.3562 3.54375 2.76465 3.9543L3.49965 4.68825C3.9102 5.0988 4.50765 5.166 4.83525 4.8384C5.16285 4.5108 5.0967 3.91125 4.6872 3.50175L3.95325 2.76675ZM16.3107 17.4993L17.0457 18.2332C17.4562 18.6438 18.0537 18.7089 18.3813 18.3834C18.7089 18.0558 18.6427 17.4562 18.2322 17.0467L17.4983 16.3128C17.0877 15.9022 16.4892 15.835 16.1605 16.1626C15.8319 16.4902 15.9001 17.0887 16.3107 17.4993Z" fill="#000000"/>
</g>
<defs>
<clipPath id="clip0_894_358">
<rect width="21" height="21" fill="white"/>
</clipPath>
</defs>
</svg>

