<svg width="44" height="44" viewBox="0 0 44 44" fill="none" xmlns="http://www.w3.org/2000/svg">
<rect width="44" height="44" rx="22" fill="#F9F9F9"/>
<path d="M8.93335 31.3334V15.3334H34.2667V31.3334C34.2667 32.8 33.0667 34 31.6 34H11.6C10.1333 34 8.93335 32.8 8.93335 31.3334Z" fill="#CFD8DC"/>
<path d="M34.2667 12.6667V16.6667H8.93335V12.6667C8.93335 11.2 10.1333 10 11.6 10H31.6C33.0667 10 34.2667 11.2 34.2667 12.6667Z" fill="#F44336"/>
<path d="M25.6 12.6666C25.6 13.1971 25.8107 13.7058 26.1858 14.0808C26.5609 14.4559 27.0696 14.6666 27.6 14.6666C28.1304 14.6666 28.6391 14.4559 29.0142 14.0808C29.3893 13.7058 29.6 13.1971 29.6 12.6666C29.6 12.1362 29.3893 11.6275 29.0142 11.2524C28.6391 10.8773 28.1304 10.6666 27.6 10.6666C27.0696 10.6666 26.5609 10.8773 26.1858 11.2524C25.8107 11.6275 25.6 12.1362 25.6 12.6666Z" fill="#B71C1C"/>
<path d="M13.6 12.6666C13.6 13.1971 13.8107 13.7058 14.1858 14.0808C14.5609 14.4559 15.0696 14.6666 15.6 14.6666C16.1304 14.6666 16.6391 14.4559 17.0142 14.0808C17.3893 13.7058 17.6 13.1971 17.6 12.6666C17.6 12.1362 17.3893 11.6275 17.0142 11.2524C16.6391 10.8773 16.1304 10.6666 15.6 10.6666C15.0696 10.6666 14.5609 10.8773 14.1858 11.2524C13.8107 11.6275 13.6 12.1362 13.6 12.6666Z" fill="#B71C1C"/>
<path d="M27.6 8C26.8667 8 26.2667 8.6 26.2667 9.33333V12.6667C26.2667 13.4 26.8667 14 27.6 14C28.3333 14 28.9333 13.4 28.9333 12.6667V9.33333C28.9333 8.6 28.3333 8 27.6 8ZM15.6 8C14.8667 8 14.2667 8.6 14.2667 9.33333V12.6667C14.2667 13.4 14.8667 14 15.6 14C16.3333 14 16.9333 13.4 16.9333 12.6667V9.33333C16.9333 8.6 16.3333 8 15.6 8Z" fill="#B0BEC5"/>
<path d="M14.2667 19.3334H16.9333V22H14.2667V19.3334ZM18.2667 19.3334H20.9333V22H18.2667V19.3334ZM22.2667 19.3334H24.9333V22H22.2667V19.3334ZM26.2667 19.3334H28.9333V22H26.2667V19.3334ZM14.2667 23.3334H16.9333V26H14.2667V23.3334ZM18.2667 23.3334H20.9333V26H18.2667V23.3334ZM22.2667 23.3334H24.9333V26H22.2667V23.3334ZM26.2667 23.3334H28.9333V26H26.2667V23.3334ZM14.2667 27.3334H16.9333V30H14.2667V27.3334ZM18.2667 27.3334H20.9333V30H18.2667V27.3334ZM22.2667 27.3334H24.9333V30H22.2667V27.3334ZM26.2667 27.3334H28.9333V30H26.2667V27.3334Z" fill="#90A4AE"/>
</svg>
