<svg width="44" height="44" viewBox="0 0 44 44" fill="none" xmlns="http://www.w3.org/2000/svg">
<rect width="44" height="44" rx="22" fill="#F9F9F9"/>
<path d="M30.6905 31.333C30.6905 31.3352 30.6905 31.3375 30.6905 31.3404C28.3953 33.4217 25.3487 34.6895 22.0069 34.6895C18.6646 34.6895 15.6178 33.4217 13.3228 31.3404C13.3228 31.3375 13.3228 31.3353 13.3228 31.333C13.3228 27.8713 15.3484 24.8831 18.2786 23.4885C19.3798 24.5869 20.6692 25.1787 22.007 25.1787C23.3453 25.1787 24.6341 24.5869 25.7359 23.4885C28.666 24.8831 30.6905 27.8712 30.6905 31.333Z" fill="#8913BB"/>
<path d="M22.0069 12.5547C24.6596 12.5547 26.8104 14.7048 26.8104 17.3576C26.8104 20.0108 24.6596 23.6391 22.0069 23.6391C19.3542 23.6391 17.2035 20.0108 17.2035 17.3576C17.2035 14.7048 19.3542 12.5547 22.0069 12.5547Z" fill="#FFD6CB"/>
<path d="M17.9587 21.9504C18.106 22.1602 18.2584 22.3569 18.4158 22.5417L17.9366 22.7696C16.3413 23.5286 14.9916 24.7162 14.0326 26.204C13.2525 27.4144 12.7636 28.7789 12.5936 30.2013C10.8602 29.7289 9.29335 28.8528 8 27.6799V27.6737C8 24.6571 9.76527 22.0533 12.3185 20.8378C13.2781 21.7951 14.4015 22.3108 15.567 22.3108C16.3305 22.3108 17.0764 22.0897 17.7694 21.6678C17.8303 21.7634 17.8939 21.8578 17.9587 21.9504Z" fill="#695CFF"/>
<path d="M16.4078 17.3574C16.4078 18.3546 16.6671 19.4518 17.1287 20.4831C16.646 20.789 16.119 20.9692 15.567 20.9692C13.2554 20.9692 11.3815 17.8076 11.3815 15.4954C11.3815 13.1838 13.2554 11.3105 15.567 11.3105C16.849 11.3105 17.9968 11.887 18.7643 12.7949C17.339 13.8115 16.4078 15.4778 16.4078 17.3574Z" fill="#FFD6CB"/>
<path d="M26.0413 21.9504C25.894 22.1602 25.7417 22.3569 25.5842 22.5417L26.0634 22.7696C27.6587 23.5286 29.0084 24.7162 29.9674 26.204C30.7475 27.4144 31.2364 28.7789 31.4064 30.2013C33.1398 29.7289 34.7067 28.8528 36 27.6799V27.6737C36 24.6571 34.2347 22.0533 31.6816 20.8378C30.7219 21.7951 29.5985 22.3108 28.433 22.3108C27.6695 22.3108 26.9236 22.0897 26.2306 21.6678C26.1698 21.7634 26.1061 21.8578 26.0413 21.9504Z" fill="#695CFF"/>
<path d="M27.5922 17.3574C27.5922 18.3546 27.3329 19.4518 26.8713 20.4831C27.354 20.789 27.881 20.9692 28.433 20.9692C30.7446 20.9692 32.6185 17.8076 32.6185 15.4954C32.6185 13.1838 30.7446 11.3105 28.433 11.3105C27.151 11.3105 26.0032 11.887 25.2357 12.7949C26.661 13.8115 27.5922 15.4778 27.5922 17.3574Z" fill="#FFD6CB"/>
</svg>
